<?xml version="1.0" encoding="UTF-8"?><svg id="a" xmlns="http://www.w3.org/2000/svg" viewBox="0 0 674 184"><defs><style>.b{fill:#d7b979;}.c{fill:#97dbfd;}.d{fill:#e0dcdc;}.e{fill:#b5cea8;}</style></defs><path class="b" d="M56.23,59.87c-.63,0-1.16-.22-1.61-.67-.44-.44-.67-.98-.67-1.61s.23-1.2,.69-1.65c.46-.44,.99-.67,1.59-.67s1.16,.23,1.61,.69c.44,.46,.67,1,.67,1.63s-.22,1.13-.65,1.59c-.43,.46-.97,.69-1.63,.69Z"/><path class="b" d="M73.45,59.44c-2.01,0-3.82-.48-5.41-1.43-1.59-.95-2.86-2.25-3.78-3.9-.93-1.65-1.39-3.5-1.39-5.57s.48-3.96,1.43-5.61c.95-1.65,2.25-2.95,3.9-3.9,1.65-.95,3.5-1.43,5.57-1.43s3.91,.48,5.55,1.43c1.63,.95,2.93,2.25,3.88,3.9,.95,1.65,1.44,3.52,1.47,5.61l-1.22,.94c0,1.88-.44,3.58-1.31,5.08-.88,1.5-2.07,2.69-3.57,3.57-1.5,.88-3.21,1.31-5.12,1.31Zm.31-2.75c1.52,0,2.87-.35,4.06-1.06,1.19-.71,2.13-1.68,2.82-2.92,.69-1.24,1.04-2.63,1.04-4.18s-.35-2.97-1.04-4.2c-.69-1.23-1.63-2.2-2.82-2.92-1.19-.72-2.54-1.08-4.06-1.08s-2.84,.36-4.04,1.08c-1.2,.72-2.16,1.69-2.86,2.92-.71,1.23-1.06,2.63-1.06,4.2s.35,2.93,1.06,4.18c.71,1.24,1.66,2.22,2.86,2.92,1.2,.71,2.55,1.06,4.04,1.06Zm9.37,2.55c-.45,0-.81-.14-1.1-.41-.29-.27-.43-.63-.43-1.08v-6.71l.75-3.1,2.31,.59v9.21c0,.44-.14,.8-.43,1.08-.29,.27-.65,.41-1.1,.41Z"/><path class="b" d="M92.07,59.24c-.47,0-.84-.14-1.12-.41s-.41-.63-.41-1.08v-18.43c0-.47,.14-.84,.41-1.12s.65-.41,1.12-.41c.44,0,.8,.14,1.08,.41s.41,.65,.41,1.12v18.43c0,.44-.14,.8-.41,1.08s-.63,.41-1.08,.41Zm16.86,0c-.45,0-.81-.14-1.1-.43-.29-.29-.43-.64-.43-1.06v-10.19c0-1.62-.31-2.95-.92-4-.61-1.04-1.45-1.83-2.51-2.35-1.06-.52-2.25-.78-3.59-.78s-2.44,.25-3.47,.75c-1.03,.5-1.85,1.18-2.45,2.04-.6,.86-.9,1.84-.9,2.94h-2.16c.05-1.65,.5-3.12,1.33-4.41s1.95-2.31,3.33-3.06c1.39-.75,2.93-1.12,4.63-1.12,1.86,0,3.52,.39,4.98,1.16,1.46,.77,2.62,1.9,3.47,3.39,.85,1.49,1.27,3.31,1.27,5.45v10.19c0,.42-.14,.77-.43,1.06-.29,.29-.64,.43-1.06,.43Z"/><path class="b" d="M126.85,59.44c-2.07,0-3.92-.48-5.57-1.43-1.65-.95-2.95-2.25-3.9-3.9-.96-1.65-1.43-3.52-1.43-5.61s.46-3.92,1.39-5.57c.93-1.65,2.19-2.95,3.78-3.9,1.59-.95,3.4-1.43,5.41-1.43,1.75,0,3.33,.37,4.75,1.12,1.41,.75,2.55,1.73,3.41,2.96v-11.53c0-.47,.14-.84,.43-1.12,.29-.27,.65-.41,1.1-.41s.81,.14,1.1,.41c.29,.27,.43,.65,.43,1.12v18.51c-.05,2.04-.56,3.88-1.51,5.51-.96,1.63-2.25,2.92-3.88,3.86-1.63,.94-3.47,1.41-5.51,1.41Zm0-2.75c1.52,0,2.87-.36,4.06-1.08,1.19-.72,2.13-1.69,2.82-2.92,.69-1.23,1.04-2.63,1.04-4.2s-.35-2.93-1.04-4.18c-.69-1.24-1.63-2.22-2.82-2.92-1.19-.71-2.54-1.06-4.06-1.06s-2.84,.35-4.04,1.06c-1.2,.71-2.16,1.68-2.86,2.92-.71,1.24-1.06,2.63-1.06,4.18s.35,2.97,1.06,4.2c.71,1.23,1.66,2.2,2.86,2.92,1.2,.72,2.55,1.08,4.04,1.08Z"/><path class="b" d="M146.3,59.24c-.47,0-.84-.13-1.1-.39-.26-.26-.39-.63-.39-1.1v-18.47c0-.47,.13-.84,.39-1.1,.26-.26,.63-.39,1.1-.39s.84,.13,1.1,.39c.26,.26,.39,.63,.39,1.1v18.47c0,.47-.13,.84-.39,1.1-.26,.26-.63,.39-1.1,.39Zm-.23-13.21c.08-1.62,.5-3.07,1.27-4.35,.77-1.28,1.78-2.29,3.02-3.02,1.24-.73,2.62-1.1,4.14-1.1,1.2,0,2.13,.17,2.78,.51,.65,.34,.9,.84,.75,1.49-.1,.39-.28,.65-.53,.78-.25,.13-.55,.18-.9,.16-.35-.03-.75-.05-1.2-.08-1.46-.13-2.76,.02-3.9,.45-1.14,.43-2.04,1.09-2.71,1.98-.67,.89-1,1.95-1,3.18h-1.72Z"/><path class="b" d="M170.92,59.44c-2.12,0-3.99-.46-5.63-1.39-1.63-.93-2.92-2.22-3.84-3.86-.93-1.65-1.39-3.53-1.39-5.65s.44-4.03,1.31-5.67c.88-1.63,2.08-2.92,3.63-3.86,1.54-.94,3.32-1.41,5.33-1.41s3.72,.45,5.2,1.35,2.62,2.15,3.43,3.74c.81,1.59,1.21,3.41,1.21,5.45,0,.42-.13,.75-.39,1-.26,.25-.6,.37-1.02,.37h-16.67v-2.51h16.98l-1.69,1.22c.03-1.52-.25-2.88-.82-4.08-.58-1.2-1.39-2.14-2.45-2.82-1.06-.68-2.32-1.02-3.78-1.02s-2.8,.35-3.92,1.06c-1.12,.71-1.99,1.68-2.61,2.92-.61,1.24-.92,2.66-.92,4.25s.35,3.01,1.04,4.23c.69,1.23,1.64,2.2,2.84,2.9,1.2,.71,2.59,1.06,4.16,1.06,.94,0,1.89-.16,2.84-.49,.95-.33,1.72-.74,2.29-1.24,.29-.24,.61-.36,.98-.37,.37-.01,.68,.09,.94,.29,.34,.31,.52,.65,.53,1.02,.01,.37-.14,.68-.45,.94-.86,.73-1.96,1.34-3.29,1.82-1.33,.48-2.61,.73-3.84,.73Zm-1.06-24.9c-.42,0-.78-.15-1.08-.45-.3-.3-.45-.66-.45-1.08s.12-.76,.35-1.02l4.43-4.43c.29-.29,.64-.43,1.06-.43,.44,0,.81,.15,1.1,.45,.29,.3,.43,.67,.43,1.12,0,.18-.03,.37-.1,.55-.07,.18-.18,.34-.33,.47l-4.39,4.43c-.26,.26-.6,.39-1.02,.39Z"/><path class="b" d="M192.77,59.44c-1.54,0-3.07-.26-4.59-.78-1.52-.52-2.75-1.31-3.69-2.35-.29-.31-.41-.67-.35-1.06s.25-.73,.59-1.02c.37-.26,.74-.37,1.14-.31,.39,.05,.72,.22,.98,.51,.63,.73,1.46,1.29,2.49,1.69,1.03,.39,2.18,.59,3.43,.59,1.93,0,3.33-.33,4.2-1,.86-.67,1.31-1.47,1.33-2.41,0-.94-.44-1.72-1.33-2.33s-2.35-1.09-4.39-1.43c-2.64-.42-4.58-1.15-5.8-2.2s-1.84-2.29-1.84-3.73c0-1.33,.35-2.44,1.06-3.33,.71-.89,1.65-1.56,2.82-2,1.18-.44,2.47-.67,3.88-.67,1.75,0,3.26,.3,4.53,.9,1.27,.6,2.29,1.41,3.08,2.43,.26,.34,.37,.69,.31,1.06-.05,.37-.26,.67-.63,.9-.31,.18-.67,.24-1.08,.18-.41-.06-.75-.25-1.04-.57-.65-.76-1.41-1.31-2.27-1.67-.86-.35-1.86-.53-2.98-.53-1.44,0-2.59,.29-3.45,.88-.86,.59-1.29,1.33-1.29,2.22,0,.6,.16,1.12,.49,1.57,.33,.44,.89,.84,1.69,1.18,.8,.34,1.92,.63,3.35,.86,1.96,.31,3.51,.78,4.65,1.39,1.14,.61,1.95,1.33,2.43,2.16,.48,.82,.72,1.72,.72,2.69,0,1.23-.36,2.31-1.08,3.23-.72,.93-1.71,1.65-2.98,2.18-1.27,.52-2.73,.78-4.37,.78Z"/><path class="d" d="M227.19,68.42c-4.08,0-6.12-2.04-6.12-6.12v-9.18c0-2.06-1.03-3.1-3.1-3.1-.42,0-.78-.14-1.08-.43-.3-.29-.45-.64-.45-1.06,0-.44,.15-.81,.45-1.1,.3-.29,.66-.43,1.08-.43,2.06,0,3.1-1.03,3.1-3.1v-9.18c0-4.1,2.04-6.16,6.12-6.16,.42,0,.77,.15,1.06,.45,.29,.3,.43,.67,.43,1.12,0,.42-.14,.77-.43,1.06-.29,.29-.64,.43-1.06,.43-2.07,0-3.1,1.03-3.1,3.1v9.18c0,.99-.13,1.87-.39,2.63-.26,.76-.64,1.42-1.14,2,1.02,1.12,1.53,2.65,1.53,4.59v9.18c0,2.04,1.03,3.06,3.1,3.06,.42,0,.77,.15,1.06,.45,.29,.3,.43,.66,.43,1.08,0,.44-.14,.81-.43,1.1-.29,.29-.64,.43-1.06,.43Z"/><path class="c" d="M99.44,106.49c-2.07,0-3.9-.46-5.49-1.39-1.59-.93-2.84-2.22-3.74-3.86-.9-1.65-1.35-3.53-1.35-5.65s.47-4.04,1.41-5.69c.94-1.65,2.23-2.93,3.88-3.86,1.65-.93,3.52-1.39,5.61-1.39s3.99,.46,5.63,1.39c1.63,.93,2.92,2.22,3.84,3.86s1.41,3.54,1.43,5.69l-1.76,.94c0,1.94-.41,3.65-1.22,5.16-.81,1.5-1.93,2.68-3.35,3.53-1.42,.85-3.05,1.27-4.88,1.27Zm.39,8.27c-2.07,0-3.88-.39-5.45-1.16-1.57-.77-2.86-1.82-3.88-3.16-.29-.31-.41-.65-.37-1.02,.04-.37,.23-.67,.57-.9s.72-.31,1.14-.24c.42,.08,.75,.27,.98,.59,.76,.94,1.73,1.7,2.92,2.27,1.19,.57,2.57,.86,4.14,.86,1.46,0,2.78-.35,3.96-1.06,1.18-.71,2.11-1.7,2.8-2.98,.69-1.28,1.04-2.78,1.04-4.51v-5.96l1.14-2.27,1.84,.35v8c0,2.12-.47,4.02-1.41,5.71-.94,1.69-2.22,3.02-3.84,4-1.62,.98-3.48,1.47-5.57,1.47Zm-.08-11.02c1.54,0,2.91-.35,4.1-1.04,1.19-.69,2.12-1.65,2.8-2.88,.68-1.23,1.02-2.64,1.02-4.23s-.34-3.01-1.02-4.25c-.68-1.24-1.61-2.21-2.8-2.9-1.19-.69-2.55-1.04-4.1-1.04s-2.92,.35-4.12,1.04c-1.2,.69-2.14,1.66-2.82,2.9-.68,1.24-1.02,2.66-1.02,4.25s.34,3.01,1.02,4.23c.68,1.23,1.62,2.19,2.82,2.88,1.2,.69,2.57,1.04,4.12,1.04Z"/><path class="c" d="M118.66,80.77c-.58,0-1.07-.21-1.49-.63-.42-.42-.63-.93-.63-1.53,0-.65,.22-1.17,.65-1.55,.43-.38,.93-.57,1.51-.57s1.04,.19,1.47,.57c.43,.38,.65,.9,.65,1.55,0,.6-.21,1.11-.63,1.53-.42,.42-.93,.63-1.53,.63Zm.04,25.53c-.47,0-.84-.14-1.12-.41s-.41-.65-.41-1.12v-18.39c0-.47,.14-.84,.41-1.12s.65-.41,1.12-.41c.44,0,.8,.14,1.08,.41s.41,.65,.41,1.12v18.39c0,.47-.14,.84-.41,1.12s-.63,.41-1.08,.41Z"/><path class="c" d="M129.36,106.29c-.47,0-.84-.13-1.1-.39-.26-.26-.39-.63-.39-1.1v-18.47c0-.47,.13-.84,.39-1.1,.26-.26,.63-.39,1.1-.39s.84,.13,1.1,.39c.26,.26,.39,.63,.39,1.1v18.47c0,.47-.13,.84-.39,1.1-.26,.26-.63,.39-1.1,.39Zm-.23-13.21c.08-1.62,.5-3.07,1.27-4.35,.77-1.28,1.78-2.29,3.02-3.02,1.24-.73,2.62-1.1,4.14-1.1,1.2,0,2.13,.17,2.78,.51,.65,.34,.9,.84,.75,1.49-.1,.39-.28,.65-.53,.78-.25,.13-.55,.18-.9,.16-.35-.03-.75-.05-1.2-.08-1.46-.13-2.76,.02-3.9,.45-1.14,.43-2.04,1.09-2.71,1.98-.67,.89-1,1.95-1,3.18h-1.72Z"/><path class="c" d="M153.71,106.49c-2.01,0-3.82-.48-5.41-1.43-1.59-.95-2.86-2.25-3.78-3.9-.93-1.65-1.39-3.5-1.39-5.57s.48-3.96,1.43-5.61c.95-1.65,2.25-2.95,3.9-3.9,1.65-.95,3.5-1.43,5.57-1.43s3.91,.48,5.55,1.43c1.63,.95,2.93,2.25,3.88,3.9,.95,1.65,1.44,3.52,1.47,5.61l-1.22,.94c0,1.88-.44,3.58-1.31,5.08-.88,1.5-2.07,2.69-3.57,3.57-1.5,.88-3.21,1.31-5.12,1.31Zm.31-2.75c1.52,0,2.87-.35,4.06-1.06,1.19-.71,2.13-1.68,2.82-2.92,.69-1.24,1.04-2.63,1.04-4.18s-.35-2.97-1.04-4.2c-.69-1.23-1.63-2.2-2.82-2.92-1.19-.72-2.54-1.08-4.06-1.08s-2.84,.36-4.04,1.08c-1.2,.72-2.16,1.69-2.86,2.92-.71,1.23-1.06,2.63-1.06,4.2s.35,2.93,1.06,4.18c.71,1.24,1.66,2.22,2.86,2.92,1.2,.71,2.55,1.06,4.04,1.06Zm9.37,2.55c-.45,0-.81-.14-1.1-.41-.29-.27-.43-.63-.43-1.08v-6.71l.75-3.1,2.31,.59v9.21c0,.44-.14,.8-.43,1.08-.29,.27-.65,.41-1.1,.41Z"/><path class="c" d="M175.43,106.29c-1.05,0-1.98-.29-2.8-.86-.82-.57-1.46-1.37-1.92-2.39s-.69-2.2-.69-3.53v-22.35c0-.44,.14-.8,.41-1.08s.63-.41,1.08-.41,.8,.14,1.08,.41,.41,.63,.41,1.08v22.35c0,1.12,.23,2.04,.69,2.75,.46,.71,1.04,1.06,1.75,1.06h.98c.39,0,.71,.14,.94,.41s.35,.63,.35,1.08-.16,.8-.49,1.08c-.33,.27-.75,.41-1.27,.41h-.51Z"/><path class="c" d="M190.45,106.49c-2.07,0-3.92-.48-5.57-1.43-1.65-.95-2.95-2.25-3.9-3.9-.96-1.65-1.43-3.52-1.43-5.61s.46-3.92,1.39-5.57c.93-1.65,2.19-2.95,3.78-3.9,1.59-.95,3.4-1.43,5.41-1.43,1.75,0,3.33,.37,4.75,1.12,1.41,.75,2.55,1.73,3.41,2.96v-11.53c0-.47,.14-.84,.43-1.12,.29-.27,.65-.41,1.1-.41s.81,.14,1.1,.41c.29,.27,.43,.65,.43,1.12v18.51c-.05,2.04-.56,3.88-1.51,5.51-.96,1.63-2.25,2.92-3.88,3.86-1.63,.94-3.47,1.41-5.51,1.41Zm0-2.75c1.52,0,2.87-.36,4.06-1.08,1.19-.72,2.13-1.69,2.82-2.92,.69-1.23,1.04-2.63,1.04-4.2s-.35-2.93-1.04-4.18c-.69-1.24-1.63-2.22-2.82-2.92-1.19-.71-2.54-1.06-4.06-1.06s-2.84,.35-4.04,1.06c-1.2,.71-2.16,1.68-2.86,2.92-.71,1.24-1.06,2.63-1.06,4.18s.35,2.97,1.06,4.2c.71,1.23,1.66,2.2,2.86,2.92,1.2,.72,2.55,1.08,4.04,1.08Z"/><path class="c" d="M218.17,106.49c-2.09,0-3.96-.47-5.61-1.41-1.65-.94-2.94-2.24-3.88-3.88-.94-1.65-1.41-3.52-1.41-5.61s.47-4,1.41-5.65c.94-1.65,2.23-2.94,3.88-3.88,1.65-.94,3.52-1.41,5.61-1.41s3.95,.47,5.59,1.41,2.92,2.24,3.86,3.88c.94,1.65,1.42,3.53,1.45,5.65,0,2.09-.48,3.96-1.43,5.61-.95,1.65-2.25,2.94-3.88,3.88-1.63,.94-3.5,1.41-5.59,1.41Zm0-2.75c1.52,0,2.88-.35,4.08-1.06,1.2-.71,2.14-1.67,2.82-2.9,.68-1.23,1.02-2.63,1.02-4.2s-.34-2.97-1.02-4.22c-.68-1.24-1.62-2.22-2.82-2.92-1.2-.71-2.56-1.06-4.08-1.06s-2.88,.35-4.08,1.06c-1.2,.71-2.15,1.68-2.84,2.92-.69,1.24-1.04,2.65-1.04,4.22s.35,2.97,1.04,4.2c.69,1.23,1.64,2.2,2.84,2.9,1.2,.71,2.56,1.06,4.08,1.06Z"/><path class="d" d="M234.96,89.67c-.63,0-1.17-.22-1.63-.65s-.69-.97-.69-1.63,.22-1.2,.67-1.65c.44-.44,.99-.67,1.65-.67s1.16,.23,1.59,.69c.43,.46,.65,1,.65,1.63s-.21,1.16-.65,1.61c-.43,.44-.96,.67-1.59,.67Zm.08,17.25c-.63,0-1.16-.22-1.61-.67-.45-.44-.67-.98-.67-1.61s.23-1.2,.69-1.65c.46-.44,.99-.67,1.59-.67s1.16,.23,1.61,.69c.44,.46,.67,1,.67,1.63s-.22,1.13-.65,1.59c-.43,.46-.97,.69-1.63,.69Z"/><path class="e" d="M263.85,106.49c-2.07,0-3.92-.48-5.57-1.43-1.65-.95-2.95-2.25-3.9-3.9-.96-1.65-1.43-3.52-1.43-5.61s.46-3.92,1.39-5.57c.93-1.65,2.19-2.95,3.78-3.9,1.59-.95,3.4-1.43,5.41-1.43,1.75,0,3.33,.37,4.75,1.12,1.41,.75,2.55,1.73,3.41,2.96v-11.53c0-.47,.14-.84,.43-1.12,.29-.27,.65-.41,1.1-.41s.81,.14,1.1,.41c.29,.27,.43,.65,.43,1.12v18.51c-.05,2.04-.56,3.88-1.51,5.51-.96,1.63-2.25,2.92-3.88,3.86-1.63,.94-3.47,1.41-5.51,1.41Zm0-2.75c1.52,0,2.87-.36,4.06-1.08,1.19-.72,2.13-1.69,2.82-2.92,.69-1.23,1.04-2.63,1.04-4.2s-.35-2.93-1.04-4.18c-.69-1.24-1.63-2.22-2.82-2.92-1.19-.71-2.54-1.06-4.06-1.06s-2.84,.35-4.04,1.06c-1.2,.71-2.16,1.68-2.86,2.92-.71,1.24-1.06,2.63-1.06,4.18s.35,2.97,1.06,4.2c.71,1.23,1.66,2.2,2.86,2.92,1.2,.72,2.55,1.08,4.04,1.08Z"/><path class="e" d="M291.54,106.49c-2.12,0-3.99-.46-5.63-1.39-1.63-.93-2.92-2.22-3.84-3.86-.93-1.65-1.39-3.53-1.39-5.65s.44-4.03,1.31-5.67c.88-1.63,2.08-2.92,3.63-3.86,1.54-.94,3.32-1.41,5.33-1.41s3.72,.45,5.2,1.35,2.62,2.15,3.43,3.74c.81,1.59,1.21,3.41,1.21,5.45,0,.42-.13,.75-.39,1-.26,.25-.6,.37-1.02,.37h-16.67v-2.51h16.98l-1.69,1.22c.03-1.52-.25-2.88-.82-4.08-.58-1.2-1.39-2.14-2.45-2.82-1.06-.68-2.32-1.02-3.78-1.02s-2.8,.35-3.92,1.06c-1.12,.71-1.99,1.68-2.61,2.92-.61,1.24-.92,2.66-.92,4.25s.35,3.01,1.04,4.23c.69,1.23,1.64,2.2,2.84,2.9,1.2,.71,2.59,1.06,4.16,1.06,.94,0,1.89-.16,2.84-.49,.95-.33,1.72-.74,2.29-1.24,.29-.24,.61-.36,.98-.37,.37-.01,.68,.09,.94,.29,.34,.31,.52,.65,.53,1.02,.01,.37-.14,.68-.45,.94-.86,.73-1.96,1.34-3.29,1.82-1.33,.48-2.61,.73-3.84,.73Z"/><path class="e" d="M313.38,106.49c-1.54,0-3.07-.26-4.59-.78-1.52-.52-2.75-1.31-3.69-2.35-.29-.31-.41-.67-.35-1.06s.25-.73,.59-1.02c.37-.26,.74-.37,1.14-.31,.39,.05,.72,.22,.98,.51,.63,.73,1.46,1.29,2.49,1.69,1.03,.39,2.18,.59,3.43,.59,1.93,0,3.33-.33,4.2-1,.86-.67,1.31-1.47,1.33-2.41,0-.94-.44-1.72-1.33-2.33s-2.35-1.09-4.39-1.43c-2.64-.42-4.58-1.15-5.8-2.2s-1.84-2.29-1.84-3.73c0-1.33,.35-2.44,1.06-3.33,.71-.89,1.65-1.56,2.82-2,1.18-.44,2.47-.67,3.88-.67,1.75,0,3.26,.3,4.53,.9,1.27,.6,2.29,1.41,3.08,2.43,.26,.34,.37,.69,.31,1.06-.05,.37-.26,.67-.63,.9-.31,.18-.67,.24-1.08,.18-.41-.06-.75-.25-1.04-.57-.65-.76-1.41-1.31-2.27-1.67-.86-.35-1.86-.53-2.98-.53-1.44,0-2.59,.29-3.45,.88-.86,.59-1.29,1.33-1.29,2.22,0,.6,.16,1.12,.49,1.57,.33,.44,.89,.84,1.69,1.18,.8,.34,1.92,.63,3.35,.86,1.96,.31,3.51,.78,4.65,1.39,1.14,.61,1.95,1.33,2.43,2.16,.48,.82,.72,1.72,.72,2.69,0,1.23-.36,2.31-1.08,3.23-.72,.93-1.71,1.65-2.98,2.18-1.27,.52-2.73,.78-4.37,.78Z"/><path class="e" d="M336.47,106.49c-2.01,0-3.82-.48-5.41-1.43-1.59-.95-2.86-2.25-3.78-3.9-.93-1.65-1.39-3.5-1.39-5.57s.48-3.96,1.43-5.61c.95-1.65,2.25-2.95,3.9-3.9,1.65-.95,3.5-1.43,5.57-1.43s3.91,.48,5.55,1.43c1.63,.95,2.93,2.25,3.88,3.9,.95,1.65,1.44,3.52,1.47,5.61l-1.22,.94c0,1.88-.44,3.58-1.31,5.08-.88,1.5-2.07,2.69-3.57,3.57-1.5,.88-3.21,1.31-5.12,1.31Zm.31-2.75c1.52,0,2.87-.35,4.06-1.06,1.19-.71,2.13-1.68,2.82-2.92,.69-1.24,1.04-2.63,1.04-4.18s-.35-2.97-1.04-4.2c-.69-1.23-1.63-2.2-2.82-2.92-1.19-.72-2.54-1.08-4.06-1.08s-2.84,.36-4.04,1.08c-1.2,.72-2.16,1.69-2.86,2.92-.71,1.23-1.06,2.63-1.06,4.2s.35,2.93,1.06,4.18c.71,1.24,1.66,2.22,2.86,2.92,1.2,.71,2.55,1.06,4.04,1.06Zm9.37,2.55c-.45,0-.81-.14-1.1-.41-.29-.27-.43-.63-.43-1.08v-6.71l.75-3.1,2.31,.59v9.21c0,.44-.14,.8-.43,1.08-.29,.27-.65,.41-1.1,.41Z"/><path class="e" d="M355.06,106.29c-.47,0-.84-.13-1.1-.39-.26-.26-.39-.63-.39-1.1v-18.47c0-.47,.13-.84,.39-1.1,.26-.26,.63-.39,1.1-.39s.84,.13,1.1,.39c.26,.26,.39,.63,.39,1.1v18.47c0,.47-.13,.84-.39,1.1-.26,.26-.63,.39-1.1,.39Zm-.23-13.21c.08-1.62,.5-3.07,1.27-4.35,.77-1.28,1.78-2.29,3.02-3.02,1.24-.73,2.62-1.1,4.14-1.1,1.2,0,2.13,.17,2.78,.51,.65,.34,.9,.84,.75,1.49-.1,.39-.28,.65-.53,.78-.25,.13-.55,.18-.9,.16-.35-.03-.75-.05-1.2-.08-1.46-.13-2.76,.02-3.9,.45-1.14,.43-2.04,1.09-2.71,1.98-.67,.89-1,1.95-1,3.18h-1.72Z"/><path class="e" d="M373.01,106.29c-.47,0-.84-.13-1.1-.39-.26-.26-.39-.63-.39-1.1v-18.47c0-.47,.13-.84,.39-1.1,.26-.26,.63-.39,1.1-.39s.84,.13,1.1,.39c.26,.26,.39,.63,.39,1.1v18.47c0,.47-.13,.84-.39,1.1-.26,.26-.63,.39-1.1,.39Zm-.23-13.21c.08-1.62,.5-3.07,1.27-4.35,.77-1.28,1.78-2.29,3.02-3.02,1.24-.73,2.62-1.1,4.14-1.1,1.2,0,2.13,.17,2.78,.51,.65,.34,.9,.84,.75,1.49-.1,.39-.28,.65-.53,.78-.25,.13-.55,.18-.9,.16-.35-.03-.75-.05-1.2-.08-1.46-.13-2.76,.02-3.9,.45-1.14,.43-2.04,1.09-2.71,1.98-.67,.89-1,1.95-1,3.18h-1.72Z"/><path class="e" d="M397.68,106.49c-2.09,0-3.96-.47-5.61-1.41-1.65-.94-2.94-2.24-3.88-3.88-.94-1.65-1.41-3.52-1.41-5.61s.47-4,1.41-5.65c.94-1.65,2.23-2.94,3.88-3.88,1.65-.94,3.52-1.41,5.61-1.41s3.95,.47,5.59,1.41,2.92,2.24,3.86,3.88c.94,1.65,1.42,3.53,1.45,5.65,0,2.09-.48,3.96-1.43,5.61-.95,1.65-2.25,2.94-3.88,3.88-1.63,.94-3.5,1.41-5.59,1.41Zm0-2.75c1.52,0,2.88-.35,4.08-1.06,1.2-.71,2.14-1.67,2.82-2.9,.68-1.23,1.02-2.63,1.02-4.2s-.34-2.97-1.02-4.22c-.68-1.24-1.62-2.22-2.82-2.92-1.2-.71-2.56-1.06-4.08-1.06s-2.88,.35-4.08,1.06c-1.2,.71-2.15,1.68-2.84,2.92-.69,1.24-1.04,2.65-1.04,4.22s.35,2.97,1.04,4.2c.69,1.23,1.64,2.2,2.84,2.9,1.2,.71,2.56,1.06,4.08,1.06Z"/><path class="e" d="M419.09,106.29c-1.05,0-1.98-.29-2.8-.86-.82-.57-1.46-1.37-1.92-2.39s-.69-2.2-.69-3.53v-22.35c0-.44,.14-.8,.41-1.08s.63-.41,1.08-.41,.8,.14,1.08,.41,.41,.63,.41,1.08v22.35c0,1.12,.23,2.04,.69,2.75,.46,.71,1.04,1.06,1.75,1.06h.98c.39,0,.71,.14,.94,.41s.35,.63,.35,1.08-.16,.8-.49,1.08c-.33,.27-.75,.41-1.27,.41h-.51Z"/><path class="e" d="M430.14,106.29c-1.05,0-1.98-.29-2.8-.86-.82-.57-1.46-1.37-1.92-2.39s-.69-2.2-.69-3.53v-22.35c0-.44,.14-.8,.41-1.08s.63-.41,1.08-.41,.8,.14,1.08,.41,.41,.63,.41,1.08v22.35c0,1.12,.23,2.04,.69,2.75,.46,.71,1.04,1.06,1.75,1.06h.98c.39,0,.71,.14,.94,.41s.35,.63,.35,1.08-.16,.8-.49,1.08c-.33,.27-.75,.41-1.27,.41h-.51Z"/><path class="e" d="M444.85,106.49c-2.01,0-3.82-.48-5.41-1.43-1.59-.95-2.86-2.25-3.78-3.9-.93-1.65-1.39-3.5-1.39-5.57s.48-3.96,1.43-5.61c.95-1.65,2.25-2.95,3.9-3.9,1.65-.95,3.5-1.43,5.57-1.43s3.91,.48,5.55,1.43c1.63,.95,2.93,2.25,3.88,3.9,.95,1.65,1.44,3.52,1.47,5.61l-1.22,.94c0,1.88-.44,3.58-1.31,5.08-.88,1.5-2.07,2.69-3.57,3.57-1.5,.88-3.21,1.31-5.12,1.31Zm.31-2.75c1.52,0,2.87-.35,4.06-1.06,1.19-.71,2.13-1.68,2.82-2.92,.69-1.24,1.04-2.63,1.04-4.18s-.35-2.97-1.04-4.2c-.69-1.23-1.63-2.2-2.82-2.92-1.19-.72-2.54-1.08-4.06-1.08s-2.84,.36-4.04,1.08c-1.2,.72-2.16,1.69-2.86,2.92-.71,1.23-1.06,2.63-1.06,4.2s.35,2.93,1.06,4.18c.71,1.24,1.66,2.22,2.86,2.92,1.2,.71,2.55,1.06,4.04,1.06Zm9.37,2.55c-.45,0-.81-.14-1.1-.41-.29-.27-.43-.63-.43-1.08v-6.71l.75-3.1,2.31,.59v9.21c0,.44-.14,.8-.43,1.08-.29,.27-.65,.41-1.1,.41Z"/><path class="e" d="M471.71,106.49c-2.07,0-3.92-.48-5.57-1.43-1.65-.95-2.95-2.25-3.9-3.9-.96-1.65-1.43-3.52-1.43-5.61s.46-3.92,1.39-5.57c.93-1.65,2.19-2.95,3.78-3.9,1.59-.95,3.4-1.43,5.41-1.43,1.75,0,3.33,.37,4.75,1.12,1.41,.75,2.55,1.73,3.41,2.96v-11.53c0-.47,.14-.84,.43-1.12,.29-.27,.65-.41,1.1-.41s.81,.14,1.1,.41c.29,.27,.43,.65,.43,1.12v18.51c-.05,2.04-.56,3.88-1.51,5.51-.96,1.63-2.25,2.92-3.88,3.86-1.63,.94-3.47,1.41-5.51,1.41Zm0-2.75c1.52,0,2.87-.36,4.06-1.08,1.19-.72,2.13-1.69,2.82-2.92,.69-1.23,1.04-2.63,1.04-4.2s-.35-2.93-1.04-4.18c-.69-1.24-1.63-2.22-2.82-2.92-1.19-.71-2.54-1.06-4.06-1.06s-2.84,.35-4.04,1.06c-1.2,.71-2.16,1.68-2.86,2.92-.71,1.24-1.06,2.63-1.06,4.18s.35,2.97,1.06,4.2c.71,1.23,1.66,2.2,2.86,2.92,1.2,.72,2.55,1.08,4.04,1.08Z"/><path class="e" d="M499.43,106.49c-2.09,0-3.96-.47-5.61-1.41-1.65-.94-2.94-2.24-3.88-3.88-.94-1.65-1.41-3.52-1.41-5.61s.47-4,1.41-5.65c.94-1.65,2.23-2.94,3.88-3.88,1.65-.94,3.52-1.41,5.61-1.41s3.95,.47,5.59,1.41,2.92,2.24,3.86,3.88c.94,1.65,1.42,3.53,1.45,5.65,0,2.09-.48,3.96-1.43,5.61-.95,1.65-2.25,2.94-3.88,3.88-1.63,.94-3.5,1.41-5.59,1.41Zm0-2.75c1.52,0,2.88-.35,4.08-1.06,1.2-.71,2.14-1.67,2.82-2.9,.68-1.23,1.02-2.63,1.02-4.2s-.34-2.97-1.02-4.22c-.68-1.24-1.62-2.22-2.82-2.92-1.2-.71-2.56-1.06-4.08-1.06s-2.88,.35-4.08,1.06c-1.2,.71-2.15,1.68-2.84,2.92-.69,1.24-1.04,2.65-1.04,4.22s.35,2.97,1.04,4.2c.69,1.23,1.64,2.2,2.84,2.9,1.2,.71,2.56,1.06,4.08,1.06Z"/><path class="e" d="M517.7,106.29c-.47,0-.84-.13-1.1-.39-.26-.26-.39-.63-.39-1.1v-18.47c0-.47,.13-.84,.39-1.1,.26-.26,.63-.39,1.1-.39s.84,.13,1.1,.39c.26,.26,.39,.63,.39,1.1v18.47c0,.47-.13,.84-.39,1.1-.26,.26-.63,.39-1.1,.39Zm-.23-13.21c.08-1.62,.5-3.07,1.27-4.35,.77-1.28,1.78-2.29,3.02-3.02,1.24-.73,2.62-1.1,4.14-1.1,1.2,0,2.13,.17,2.78,.51,.65,.34,.9,.84,.75,1.49-.1,.39-.28,.65-.53,.78-.25,.13-.55,.18-.9,.16-.35-.03-.75-.05-1.2-.08-1.46-.13-2.76,.02-3.9,.45-1.14,.43-2.04,1.09-2.71,1.98-.67,.89-1,1.95-1,3.18h-1.72Z"/><path class="e" d="M550.52,106.29c-.34,0-.64-.09-.9-.27-.26-.18-.44-.42-.55-.71l-6.12-18.35c-.16-.65-.14-1.17,.04-1.55,.18-.38,.55-.57,1.1-.57,.34,0,.64,.09,.9,.27,.26,.18,.46,.47,.59,.86l5.45,16.66h-.86l5.06-16.63c.1-.34,.28-.62,.53-.84,.25-.22,.57-.33,.96-.33s.71,.1,.96,.31c.25,.21,.42,.5,.53,.86l4.82,16.23h-.67l5.33-16.27c.26-.76,.75-1.14,1.45-1.14,.57,0,.97,.22,1.18,.65,.21,.43,.21,.92,0,1.47l-6.12,18.35c-.11,.29-.28,.52-.53,.71-.25,.18-.54,.27-.88,.27s-.65-.09-.92-.27c-.28-.18-.45-.42-.53-.71l-4.94-16.39h.47l-4.94,16.39c-.1,.31-.29,.56-.55,.73-.26,.17-.55,.25-.86,.25Z"/><path class="e" d="M583.61,106.49c-2.12,0-3.99-.46-5.63-1.39-1.63-.93-2.92-2.22-3.84-3.86-.93-1.65-1.39-3.53-1.39-5.65s.44-4.03,1.31-5.67c.88-1.63,2.08-2.92,3.63-3.86,1.54-.94,3.32-1.41,5.33-1.41s3.72,.45,5.2,1.35,2.62,2.15,3.43,3.74c.81,1.59,1.21,3.41,1.21,5.45,0,.42-.13,.75-.39,1-.26,.25-.6,.37-1.02,.37h-16.67v-2.51h16.98l-1.69,1.22c.03-1.52-.25-2.88-.82-4.08-.58-1.2-1.39-2.14-2.45-2.82-1.06-.68-2.32-1.02-3.78-1.02s-2.8,.35-3.92,1.06c-1.12,.71-1.99,1.68-2.61,2.92-.61,1.24-.92,2.66-.92,4.25s.35,3.01,1.04,4.23c.69,1.23,1.64,2.2,2.84,2.9,1.2,.71,2.59,1.06,4.16,1.06,.94,0,1.89-.16,2.84-.49,.95-.33,1.72-.74,2.29-1.24,.29-.24,.61-.36,.98-.37,.37-.01,.68,.09,.94,.29,.34,.31,.52,.65,.53,1.02,.01,.37-.14,.68-.45,.94-.86,.73-1.96,1.34-3.29,1.82-1.33,.48-2.61,.73-3.84,.73Z"/><path class="e" d="M608.83,106.49c-2.04,0-3.88-.47-5.51-1.41-1.63-.94-2.93-2.23-3.88-3.86s-1.44-3.47-1.47-5.51v-18.51c0-.47,.14-.84,.41-1.12s.65-.41,1.12-.41c.44,0,.8,.14,1.08,.41s.41,.65,.41,1.12v11.53c.86-1.23,2.01-2.22,3.43-2.96,1.42-.75,3.01-1.12,4.76-1.12,2.01,0,3.82,.48,5.41,1.43,1.59,.95,2.86,2.25,3.78,3.9,.93,1.65,1.39,3.5,1.39,5.57s-.48,3.96-1.43,5.61c-.96,1.65-2.25,2.95-3.9,3.9-1.65,.95-3.52,1.43-5.61,1.43Zm0-2.75c1.52,0,2.88-.36,4.08-1.08,1.2-.72,2.15-1.69,2.84-2.92,.69-1.23,1.04-2.63,1.04-4.2s-.35-2.93-1.04-4.18c-.69-1.24-1.64-2.22-2.84-2.92-1.2-.71-2.56-1.06-4.08-1.06s-2.84,.35-4.04,1.06c-1.2,.71-2.14,1.68-2.82,2.92-.68,1.24-1.02,2.63-1.02,4.18s.34,2.97,1.02,4.2c.68,1.23,1.62,2.2,2.82,2.92,1.2,.72,2.55,1.08,4.04,1.08Z"/><path class="d" d="M625.76,89.67c-.63,0-1.17-.22-1.63-.65-.46-.43-.69-.97-.69-1.63s.22-1.2,.67-1.65c.44-.44,.99-.67,1.65-.67s1.16,.23,1.59,.69c.43,.46,.65,1,.65,1.63s-.22,1.16-.65,1.61c-.43,.44-.96,.67-1.59,.67Zm-.43,22.98c-.26,0-.46-.07-.61-.22-.14-.14-.22-.33-.22-.57,0-.39,.12-.75,.35-1.08,.24-.33,.48-.67,.73-1.04,.25-.37,.37-.81,.37-1.33,0-.47-.09-.86-.27-1.18-.18-.31-.4-.59-.65-.84-.25-.25-.46-.52-.65-.82-.18-.3-.27-.67-.27-1.12,0-.65,.21-1.18,.65-1.57s.97-.59,1.63-.59c.78,0,1.42,.31,1.92,.92,.5,.61,.75,1.47,.75,2.57,0,.73-.11,1.5-.31,2.31-.21,.81-.5,1.56-.86,2.25-.37,.69-.77,1.25-1.22,1.67-.44,.42-.89,.63-1.33,.63Z"/><path class="d" d="M54,162.52c-.42,0-.77-.14-1.06-.43s-.43-.65-.43-1.1c0-.42,.14-.78,.43-1.08,.29-.3,.64-.45,1.06-.45,2.06,0,3.1-1.02,3.1-3.06v-9.18c0-1.93,.51-3.46,1.53-4.59-.5-.57-.88-1.24-1.14-2s-.39-1.63-.39-2.63v-9.18c0-2.06-1.03-3.1-3.1-3.1-.42,0-.77-.14-1.06-.43-.29-.29-.43-.64-.43-1.06,0-.44,.14-.82,.43-1.12,.29-.3,.64-.45,1.06-.45,4.08,0,6.12,2.05,6.12,6.16v9.18c0,2.07,1.03,3.1,3.1,3.1,.42,0,.78,.14,1.08,.43,.3,.29,.45,.65,.45,1.1,0,.42-.15,.77-.45,1.06-.3,.29-.66,.43-1.08,.43-2.06,0-3.1,1.03-3.1,3.1v9.18c0,4.08-2.04,6.12-6.12,6.12Z"/></svg>